<svg xmlns="http://www.w3.org/2000/svg" width="1600" height="1000" viewBox="0 0 1600 1000">
  <rect width="1600" height="1000" fill="#e8eef3"/>

  <!-- grid -->
  <g stroke="#c7d2dc" stroke-width="1">
    <path d="M0 200H1600M0 400H1600M0 600H1600M0 800H1600"/>
    <path d="M200 0V1000M400 0V1000M600 0V1000M800 0V1000M1000 0V1000M1200 0V1000M1400 0V1000"/>
  </g>

  <!-- "buildings" -->
  <g>
    <rect x="240" y="240" width="320" height="200" rx="8" fill="#bcd" stroke="#56788e" stroke-width="3"/>
    <text x="400"  y="350" font-size="32" fill="#243642" text-anchor="middle" font-family="sans-serif">Hall A</text>

    <rect x="760" y="280" width="240" height="160" rx="8" fill="#cdd" stroke="#56788e" stroke-width="3"/>
    <text x="880"  y="370" font-size="28" fill="#243642" text-anchor="middle" font-family="sans-serif">Hall B</text>

    <rect x="320" y="600" width="420" height="180" rx="8" fill="#dcb" stroke="#8e6f56" stroke-width="3"/>
    <text x="530"  y="700" font-size="28" fill="#423624" text-anchor="middle" font-family="sans-serif">Garden</text>

    <rect x="900" y="560" width="360" height="240" rx="8" fill="#cdc" stroke="#586e58" stroke-width="3"/>
    <text x="1080" y="690" font-size="28" fill="#243624" text-anchor="middle" font-family="sans-serif">Cafeteria</text>
  </g>

  <!-- roads -->
  <path d="M0 500 H1600" stroke="#fff" stroke-width="20"/>
  <path d="M800 0 V1000" stroke="#fff" stroke-width="20"/>
  <path d="M0 500 H1600" stroke="#adb5bd" stroke-width="2" stroke-dasharray="14 10"/>
  <path d="M800 0 V1000" stroke="#adb5bd" stroke-width="2" stroke-dasharray="14 10"/>

  <!-- entrance marker -->
  <circle cx="800" cy="500" r="14" fill="#e05260"/>
  <text x="800" y="530" font-family="sans-serif" font-size="20" fill="#e05260" text-anchor="middle">Main Gate</text>
</svg>
